<svg xmlns="http://www.w3.org/2000/svg" xmlns:xlink="http://www.w3.org/1999/xlink" viewBox="0,0,256,256" width="48px" height="48px"><g fill="none" fill-rule="nonzero" stroke="none" stroke-width="1" stroke-linecap="butt" stroke-linejoin="miter" stroke-miterlimit="10" stroke-dasharray="" stroke-dashoffset="0" font-family="none" font-weight="none" font-size="none" text-anchor="none" style="mix-blend-mode: normal"><g transform="scale(5.33333,5.33333)"><path d="M24,4c-11,0 -20,9 -20,20c0,11 9,20 20,20c11,0 20,-9 20,-20c0,-11 -9,-20 -20,-20z" fill="#000000"></path><path d="M34,15l-3.7,19.1c0,0 -0.2,0.9 -1.2,0.9c-0.6,0 -0.9,-0.3 -0.9,-0.3l-8.2,-6.7l-4,-2l-5.1,-1.4c0,0 -0.9,-0.3 -0.9,-1c0,-0.6 0.9,-0.9 0.9,-0.9l21.3,-8.5c0,0 0.7,-0.2 1.1,-0.2c0.3,0 0.6,0.1 0.6,0.5c0.1,0.3 0.1,0.5 0.1,0.5z" fill="#29b6f6"></path><path d="M23,30.5l-3.4,3.4c0,0 -0.1,0.1 -0.3,0.1c-0.1,0 -0.1,0 -0.2,0l1,-6z" fill="#29b6f6"></path><path d="M29.9,18.2c-0.2,-0.2 -0.5,-0.3 -0.7,-0.1l-13.2,7.9c0,0 2.1,5.9 2.4,6.9c0.3,1 0.6,1 0.6,1l1,-6l9.8,-9.1c0.2,-0.1 0.3,-0.4 0.1,-0.6z" fill="#277fa8"></path></g></g></svg>